<svg width="351" height="139" viewBox="0 0 351 139" fill="none" xmlns="http://www.w3.org/2000/svg">
<path d="M46.6054 11.5825H23.3622V65.6897H42.1759V74.263H23.3622V135.991H0.5V3.00916H46.6054V11.5825Z" fill="black"/>
<path d="M95.5359 2.81863H118.398V114.081C118.398 123.798 122.399 128.942 129.829 128.942C138.784 128.942 143.737 121.131 143.737 106.651V2.81863H152.31V108.937C152.31 126.846 142.784 138.087 126.781 138.087C108.301 138.087 95.5359 123.036 95.5359 100.745V2.81863Z" fill="black"/>
<path d="M232.045 117.511C232.045 112.557 230.331 106.08 226.33 96.7442L205.944 47.0189C202.896 39.9697 201.562 33.4921 201.562 27.7765C201.562 11.773 211.85 0.913452 226.901 0.913452C236.237 0.913452 244.619 4.91434 251.288 12.9161L245 18.8222C240.238 13.8687 234.522 10.8204 230.14 10.8204C225.377 10.8204 222.519 14.4403 222.519 21.1084C222.519 24.7282 223.281 27.7765 225.568 33.8731L251.478 97.3157C253.574 102.269 254.526 107.032 254.526 111.224C254.526 126.275 241.762 137.896 225.377 137.896C217.185 137.896 207.849 135.038 200.038 130.275L204.23 122.655C210.517 125.893 217.375 127.799 222.138 127.799C228.616 127.799 232.045 124.369 232.045 117.511Z" fill="black"/>
<path d="M304.585 3.00916H350.5V11.5825H327.447V63.7845H350.5V72.3578H327.447V127.418H350.5V135.991H304.585V3.00916Z" fill="black"/>
</svg>
